/* XPM */
const char *ledGreen[]={
"16 16 17 1",
". c None",
"o c #006a00",
"f c #007500",
"n c #007d00",
"c c #008800",
"b c #008e00",
"d c #009500",
"e c #00a000",
"h c #00ac00",
"j c #00b700",
"i c #00c400",
"k c #00d000",
"l c #00e300",
"# c #656664",
"a c #7b7d7a",
"g c #90928f",
"m c #a7a9a6",
".....##aaaa.....",
"...###aaaaaaa...",
"..###bbbbccaaa..",
".##dddeeedccfgg.",
".##dehijjhdbcgg.",
"##cdhikkkjhdcfgg",
"#adejklllihdcfgg",
"aabejkllliheccgg",
"aabehikkkiedcfgg",
"aacdehiijhebffgm",
"aancdeeeddccfomm",
".aafcccddcnfomm.",
".aaffnnnnffoomm.",
"..gggoooooommm..",
"...gggggggmmm...",
".....ggggmm....."};
